<svg width="19" height="16" viewBox="0 0 19 16" fill="none" xmlns="http://www.w3.org/2000/svg">
<path d="M4.36316 0.0716036C5.2146 -0.0709079 6.07334 0.00217506 6.86997 0.265273L8.68978 3.09723L5.93448 5.85245C5.87967 5.90727 5.84678 5.984 5.85044 6.06439C5.85409 6.14478 5.88698 6.21787 5.94545 6.27268L10.0382 10.073C10.1442 10.1716 10.3086 10.179 10.4219 10.0839C10.5352 9.98894 10.5607 9.82816 10.484 9.70392L8.27685 6.11921L11.5912 3.35668C11.6863 3.27994 11.7191 3.14839 11.6789 3.03511L10.8458 0.718386C11.8872 0.108145 13.126 -0.129374 14.3429 0.0752578C16.8643 0.49183 18.7097 2.6697 18.7097 5.22394V5.43588C18.7097 6.95235 18.0812 8.40304 16.9703 9.43716L10.3671 15.6017C10.093 15.8575 9.73124 16 9.35485 16C8.97846 16 8.61669 15.8575 8.34263 15.6017L1.73942 9.43716C0.628529 8.40304 0 6.95235 0 5.43588V5.22394C0 2.6697 1.84539 0.49183 4.36316 0.0716036Z" fill="#9B9B9B" fill-opacity="0.8"/>
</svg>
