<svg width="24" height="21" viewBox="0 0 24 21" fill="none" xmlns="http://www.w3.org/2000/svg">
<path d="M11.1454 2.41152L11.6525 2.95966L12.2006 2.41244C13.7308 0.921049 15.8503 0.242274 17.9332 0.58897C21.0804 1.11335 23.3871 3.83667 23.3871 7.02957V7.2945C23.3871 9.19013 22.6015 11.0035 21.2129 12.2962L12.9588 20.0021C12.6163 20.3219 12.164 20.5 11.6936 20.5C11.2231 20.5 10.7709 20.3219 10.4283 20.0021L2.17382 12.2962C0.787032 11.0035 0 9.19013 0 7.2945V7.02957C0 3.83667 2.30765 1.11335 5.45395 0.58897C7.49576 0.242274 9.65632 0.921049 11.1454 2.41152ZM11.6525 6.06119L9.59694 3.92346C8.60573 2.97245 7.19885 2.52115 5.81481 2.75137C3.72504 3.09989 2.19254 4.91011 2.19254 7.02957V7.2945C2.19254 8.58262 2.72743 9.81592 3.66977 10.6929L11.6936 18.1841L19.7192 10.6929C20.6602 9.81592 21.1946 8.58262 21.1946 7.2945V7.02957C21.1946 4.91011 19.6598 3.09989 17.5723 2.75137C16.1883 2.52115 14.7814 2.97245 13.7902 3.92346L11.6525 6.06119Z" fill="#F35757"/>
</svg>
