<svg width="50" height="50" viewBox="0 0 50 50" fill="none" xmlns="http://www.w3.org/2000/svg">
<g clip-path="url(#clip0_206_616)">
<path d="M24.9023 46.7773H25.0977C26.3516 44.4213 27.8635 42.1931 29.2917 39.9414C31.7973 35.991 34.3231 32.0439 36.5536 27.9296C37.5666 26.0611 38.5193 24.1618 39.2627 22.1679C39.6877 21.0279 40.1052 19.7834 40.1353 18.5546C40.1837 16.578 39.8471 14.5375 39.1162 12.6953C37.959 9.77828 35.9357 7.25257 33.3008 5.5366C28.6063 2.47933 22.2182 2.27631 17.3828 5.13701C15.9039 6.01196 14.5589 7.07596 13.4525 8.3984C12.1526 9.95211 11.1519 11.735 10.5493 13.6718C10.0539 15.2646 9.71799 17.0773 9.87988 18.75C10.151 21.5519 11.631 24.1889 12.8665 26.6601C15.3184 31.5638 18.3844 36.1811 21.2939 40.8203C22.5245 42.7823 23.8136 44.7317 24.9023 46.7773Z" fill="#E74C3C"/>
<path d="M24.7008 9.02684C20.9238 9.35753 17.5959 11.5241 16.4001 15.2649C14.6202 20.8338 19.0034 27.3608 25.0945 27.0479C29.9831 26.7968 33.7394 23.0405 33.9905 18.1519C34.2386 13.3251 29.5694 8.60048 24.7008 9.02684Z" fill="white"/>
<path d="M20.1156 19.0527L24.3508 23.0066C24.5266 23.1707 24.7586 23.2621 25 23.2621C25.2414 23.2621 25.4734 23.1707 25.6492 23.0066L29.8844 19.0527C30.5969 18.3894 31 17.459 31 16.4863V16.3504C31 14.7121 29.8164 13.3152 28.2016 13.0457C27.1328 12.8676 26.0453 13.2168 25.2813 13.9808L25 14.2621L24.7188 13.9808C23.9547 13.2168 22.8672 12.8676 21.7984 13.0457C20.1836 13.3152 19 14.7121 19 16.3504V16.4863C19 17.459 19.4031 18.3894 20.1156 19.0527Z" fill="#E74C3C"/>
</g>
<defs>
<clipPath id="clip0_206_616">
<rect width="50" height="50" fill="white"/>
</clipPath>
</defs>
</svg>
