<svg width="41" height="41" viewBox="0 0 41 41" fill="none" xmlns="http://www.w3.org/2000/svg">
<path d="M10.3242 22.6679L19.1475 30.9052C19.5137 31.247 19.9971 31.4375 20.5 31.4375C21.0029 31.4375 21.4863 31.247 21.8525 30.9052L30.6758 22.6679C32.1602 21.2861 33 19.3476 33 17.3212V17.038C33 13.625 30.5342 10.7148 27.1699 10.1533C24.9434 9.78218 22.6777 10.5097 21.0859 12.1015L20.5 12.6875L19.9141 12.1015C18.3223 10.5097 16.0566 9.78218 13.8301 10.1533C10.4658 10.7148 8 13.625 8 17.038V17.3212C8 19.3476 8.83984 21.2861 10.3242 22.6679Z" fill="#F35757"/>
<circle cx="20.5" cy="20.5" r="19" stroke="#F35757" stroke-width="3"/>
</svg>
