<svg width="8" height="12" viewBox="0 0 8 12" fill="none" xmlns="http://www.w3.org/2000/svg">
<path d="M7.70832 3.375C7.70832 5.23828 6.15462 6.75 4.2396 6.75C2.32457 6.75 0.770874 5.23828 0.770874 3.375C0.770874 1.51172 2.32457 0 4.2396 0C6.15462 0 7.70832 1.51172 7.70832 3.375ZM4.2396 1.875C4.45157 1.875 4.62501 1.70625 4.62501 1.5C4.62501 1.29375 4.45157 1.125 4.2396 1.125C2.96291 1.125 1.92711 2.13281 1.92711 3.375C1.92711 3.58125 2.10055 3.75 2.31253 3.75C2.52451 3.75 2.69794 3.58125 2.69794 3.375C2.69794 2.54766 3.38928 1.875 4.2396 1.875ZM3.46877 11.25V7.43203C3.71929 7.47656 3.97703 7.5 4.2396 7.5C4.50216 7.5 4.7599 7.47656 5.01042 7.43203V11.25C5.01042 11.6648 4.66596 12 4.2396 12C3.81323 12 3.46877 11.6648 3.46877 11.25Z" fill="#1F12B5"/>
</svg>
