<svg width="10" height="9" viewBox="0 0 10 9" fill="none" xmlns="http://www.w3.org/2000/svg">
<path d="M5.19758 0.31543C5.10421 0.12207 4.9069 -0.000976562 4.69021 -0.000976562C4.47352 -0.000976562 4.27797 0.12207 4.18283 0.31543L3.05005 2.64102L0.520221 3.01367C0.308815 3.04531 0.132643 3.19297 0.0674593 3.39512C0.00227566 3.59727 0.0551272 3.82051 0.206635 3.96992L2.04235 5.78223L1.60896 8.34336C1.57373 8.5543 1.66181 8.76875 1.83622 8.89355C2.01064 9.01836 2.24142 9.03418 2.43169 8.93398L4.69197 7.72988L6.95226 8.93398C7.14252 9.03418 7.37331 9.02012 7.54772 8.89355C7.72213 8.76699 7.81021 8.5543 7.77498 8.34336L7.33983 5.78223L9.17555 3.96992C9.32705 3.82051 9.38167 3.59727 9.31472 3.39512C9.24778 3.19297 9.07337 3.04531 8.86196 3.01367L6.33037 2.64102L5.19758 0.31543Z" fill="#FFE454"/>
</svg>
