<svg version="1.1" id="Layer_1" xmlns="http://www.w3.org/2000/svg" xmlns:xlink="http://www.w3.org/1999/xlink" x="0px" y="0px"
	 width="100%" viewBox="0 0 512 512" enable-background="new 0 0 512 512" xml:space="preserve">
<path fill="#000000" opacity="1.000000" stroke="none" 
	d="
M284.000000,513.000000 
	C189.356308,513.000000 95.212616,513.000000 1.034460,513.000000 
	C1.034460,342.397949 1.034460,171.795883 1.034460,1.096914 
	C171.560379,1.096914 342.120819,1.096914 512.840637,1.096914 
	C512.840637,171.666550 512.840637,342.333252 512.840637,513.000000 
	C436.795868,513.000000 360.647919,513.000000 284.000000,513.000000 
M268.217133,33.002647 
	C246.180573,32.124996 224.576126,34.398788 203.761826,42.094341 
	C183.570114,49.559719 165.524765,60.562569 150.011917,75.531296 
	C139.219208,85.945419 130.151276,97.634613 122.511726,110.667809 
	C110.170525,131.722107 104.161079,154.484268 102.055756,178.471054 
	C100.890114,191.751633 103.384521,204.657913 107.619530,217.202408 
	C115.789711,241.403259 127.122032,264.221130 139.369736,286.518829 
	C151.440674,308.494690 164.298706,330.051849 177.268204,351.516724 
	C190.334930,373.142456 204.021454,394.392822 217.328262,415.874634 
	C228.579224,434.037598 239.683792,452.291321 250.832657,470.517426 
	C252.807144,473.745300 254.681030,477.034729 257.154022,481.234192 
	C260.213562,475.618103 262.482178,470.950928 265.195679,466.558594 
	C277.878052,446.029541 290.724274,425.601807 303.434509,405.089874 
	C321.717682,375.584229 339.980713,346.065887 358.164185,316.498779 
	C373.674530,291.278320 387.519409,265.170563 398.992889,237.860077 
	C407.809601,216.873581 414.361847,195.606750 411.215576,172.128174 
	C408.873383,154.649765 404.909515,137.833298 397.402191,121.945351 
	C387.815613,101.656914 374.535828,84.219559 357.293579,69.626442 
	C339.231934,54.339825 318.968567,43.642189 296.078430,38.029305 
	C287.228302,35.859165 278.140747,34.657505 268.217133,33.002647 
z"/>
<path fill="#E74C3C" opacity="1.000000" stroke="none" 
	d="
M268.689240,33.008636 
	C278.140747,34.657505 287.228302,35.859165 296.078430,38.029305 
	C318.968567,43.642189 339.231934,54.339825 357.293579,69.626442 
	C374.535828,84.219559 387.815613,101.656914 397.402191,121.945351 
	C404.909515,137.833298 408.873383,154.649765 411.215576,172.128174 
	C414.361847,195.606750 407.809601,216.873581 398.992889,237.860077 
	C387.519409,265.170563 373.674530,291.278320 358.164185,316.498779 
	C339.980713,346.065887 321.717682,375.584229 303.434509,405.089874 
	C290.724274,425.601807 277.878052,446.029541 265.195679,466.558594 
	C262.482178,470.950928 260.213562,475.618103 257.154022,481.234192 
	C254.681030,477.034729 252.807144,473.745300 250.832657,470.517426 
	C239.683792,452.291321 228.579224,434.037598 217.328262,415.874634 
	C204.021454,394.392822 190.334930,373.142456 177.268204,351.516724 
	C164.298706,330.051849 151.440674,308.494690 139.369736,286.518829 
	C127.122032,264.221130 115.789711,241.403259 107.619530,217.202408 
	C103.384521,204.657913 100.890114,191.751633 102.055756,178.471054 
	C104.161079,154.484268 110.170525,131.722107 122.511726,110.667809 
	C130.151276,97.634613 139.219208,85.945419 150.011917,75.531296 
	C165.524765,60.562569 183.570114,49.559719 203.761826,42.094341 
	C224.576126,34.398788 246.180573,32.124996 268.689240,33.008636 
M316.933319,148.702240 
	C311.544067,140.602661 305.637329,133.034363 297.699951,127.132698 
	C282.201141,115.608887 264.672882,111.240532 245.988174,114.309654 
	C228.384399,117.201241 213.717682,126.171181 202.714767,140.715408 
	C190.051498,157.454361 185.869461,176.125961 190.099930,196.461380 
	C196.948135,229.379822 228.743088,253.338882 262.399414,250.129868 
	C273.742828,249.048294 284.104431,245.798141 293.543121,239.715942 
	C314.399658,226.276291 324.800262,206.482758 325.730743,182.186722 
	C326.165924,170.823334 322.992126,159.559860 316.933319,148.702240 
z"/>
<path fill="#000000" opacity="1.000000" stroke="none" 
	d="
M317.009918,149.070648 
	C322.992126,159.559860 326.165924,170.823334 325.730743,182.186722 
	C324.800262,206.482758 314.399658,226.276291 293.543121,239.715942 
	C284.104431,245.798141 273.742828,249.048294 262.399414,250.129868 
	C228.743088,253.338882 196.948135,229.379822 190.099930,196.461380 
	C185.869461,176.125961 190.051498,157.454361 202.714767,140.715408 
	C213.717682,126.171181 228.384399,117.201241 245.988174,114.309654 
	C264.672882,111.240532 282.201141,115.608887 297.699951,127.132698 
	C305.637329,133.034363 311.544067,140.602661 317.009918,149.070648 
z"/>
</svg>