<svg version="1.1" id="Layer_1" xmlns="http://www.w3.org/2000/svg" xmlns:xlink="http://www.w3.org/1999/xlink" x="0px" y="0px"
	 width="100%" viewBox="0 0 512 512" enable-background="new 0 0 512 512" xml:space="preserve">
<path fill="#000000" opacity="1.000000" stroke="none" 
	d="
M234.000000,1.000000 
	C251.687561,1.000000 269.375122,1.000000 287.813934,1.207482 
	C297.113434,3.133499 305.674164,4.792398 314.207672,6.581247 
	C345.495056,13.139905 374.206604,25.866066 400.666412,43.586788 
	C422.469788,58.188992 441.350189,76.068382 457.880249,96.482788 
	C476.054504,118.927719 489.730103,143.841843 499.375000,170.988052 
	C506.623169,191.388489 510.980591,212.450531 513.000000,234.000000 
	C513.000000,249.020889 513.000000,264.041779 512.998169,279.934906 
	C511.560028,293.309418 509.697784,305.730652 506.749512,317.988861 
	C499.039307,350.046082 485.547791,379.442078 466.497192,406.321320 
	C453.361755,424.854645 437.801147,441.210480 420.400513,455.664581 
	C401.806427,471.110077 381.311981,483.696136 358.968384,493.165985 
	C341.496582,500.570984 323.505341,506.095764 304.836121,509.589752 
	C299.549164,510.579224 293.970581,510.473511 289.000000,513.000000 
	C267.979095,513.000000 246.958206,513.000000 225.254089,512.736694 
	C215.355713,510.669189 206.065750,509.179291 196.938232,507.006897 
	C155.399963,497.120575 118.535912,477.928986 86.651283,449.654846 
	C68.715149,433.749725 53.003021,415.695953 40.164345,395.286530 
	C27.082338,374.490295 17.004152,352.381714 10.177180,328.760345 
	C5.559937,312.784576 2.686786,296.511597 1.000000,280.000000 
	C1.000000,264.979095 1.000000,249.958206 1.011554,234.067078 
	C1.586112,228.101212 1.896630,222.962677 2.754599,217.917221 
	C7.119263,192.250137 14.399829,167.476730 25.849461,144.013794 
	C42.134575,110.641815 64.843933,82.240311 93.300667,58.583370 
	C121.937996,34.776299 154.446381,18.122915 190.520264,8.599598 
	C204.795425,4.831031 219.325287,2.495045 234.000000,1.000000 
M50.987064,196.148499 
	C42.645550,223.026031 40.753819,250.477386 43.259209,278.404907 
	C45.604572,304.548584 52.832851,329.306885 64.561600,352.635620 
	C76.910049,377.196960 93.416786,398.638824 114.097870,417.016571 
	C131.936859,432.868774 151.518433,445.739441 173.401779,455.016541 
	C207.092926,469.299377 242.227753,474.210358 278.669067,470.717926 
	C304.627594,468.230103 329.238312,461.131134 352.433289,449.511444 
	C377.185913,437.111511 398.725525,420.433838 417.225098,399.624969 
	C436.056915,378.442383 450.387054,354.763000 459.800354,328.121704 
	C470.478851,297.899536 473.864105,266.786621 470.713165,234.882599 
	C468.188599,209.320618 461.274506,185.023376 449.851288,162.100220 
	C437.343628,137.000900 420.570953,115.115135 399.418213,96.531921 
	C383.188293,82.273544 365.561432,70.410202 345.880920,61.413956 
	C310.573608,45.274460 273.672455,39.652416 235.151001,43.313297 
	C209.564285,45.744930 185.240250,52.687180 162.316833,64.078339 
	C126.568726,81.842361 97.823410,107.676819 76.070915,141.191071 
	C65.142845,158.028061 56.695175,176.024460 50.987064,196.148499 
z"/>
<path fill="#000000" opacity="1.000000" stroke="none" 
	d="
M197.908096,330.093506 
	C179.975800,312.177826 162.278122,294.529358 144.616135,276.845184 
	C139.182526,271.404755 136.549591,265.088806 137.483429,257.114960 
	C138.482208,248.586319 143.393448,243.256592 150.777496,240.641495 
	C158.347885,237.960403 166.057968,238.976700 172.109329,244.938782 
	C187.182846,259.789886 202.193878,274.708649 216.975861,289.848389 
	C220.572113,293.531677 222.646851,293.258453 226.159012,289.724701 
	C263.745117,251.907593 301.494965,214.253235 339.200836,176.555206 
	C347.786346,167.971466 358.633545,166.552200 368.100800,172.768417 
	C376.967926,178.590576 379.694244,192.849960 373.458160,201.494583 
	C371.425720,204.311951 369.164154,207.012665 366.710388,209.470215 
	C324.681366,251.564377 282.498810,293.505951 240.608383,335.737366 
	C228.750809,347.691437 213.712692,347.975037 203.426727,335.676727 
	C201.829361,333.766815 199.921005,332.117004 197.908096,330.093506 
z"/>
</svg>